<?xml version="1.0" encoding="UTF-8"?><svg id="Layer_1" xmlns="http://www.w3.org/2000/svg" xmlns:xlink="http://www.w3.org/1999/xlink" viewBox="0 0 125 125"><defs><style>.cls-1{fill:url(#linear-gradient);}.cls-1,.cls-2,.cls-3{stroke-width:0px;}.cls-2{fill-rule:evenodd;}.cls-2,.cls-3{fill:#fff;}</style><linearGradient id="linear-gradient" x1="2.19" y1="63.42" x2="122.81" y2="63.42" gradientTransform="translate(0 125.92) scale(1 -1)" gradientUnits="userSpaceOnUse"><stop offset="0" stop-color="#224093"/><stop offset="1" stop-color="#2f67b2"/></linearGradient></defs><rect class="cls-3" width="125" height="125"/><path class="cls-1" d="M62.48,2.21C29.2,2.21,2.21,29.18,2.19,62.46c0,1.72.09,3.42.23,5.11,3.42,3.2,7.68,5.37,12.28,6.26,14.53,2.7,38.05-9.71,34.93-5.85-9.31,11.52-20.56,23.53-36.06,27.36-.48.12-.94.21-1.41.31,18.31,27.81,55.7,35.52,83.51,17.21,27.81-18.31,35.52-55.7,17.21-83.51C101.72,12.4,82.78,2.2,62.48,2.21Z"/><path class="cls-2" d="M96.19,41.72c-.69,0-1.36.14-2,.39-.07-.22-.13-.44-.19-.66.79-.29,1.6-.52,2.43-.7l-.27,1,.03-.03ZM97.38,41.93c-.32-.13-.66-.2-1-.21l.39-1c.63-.13,1.28-.15,1.92-.07l-1.26,1.29h-.05,0ZM98.21,42.47c-.21-.21-.45-.38-.72-.5l1.45-1.27c.39.08.75.25,1.06.5l-1.81,1.27h.02ZM71.55,52.21l.08.16c.09.15.28.19.43.11l.56-.28c.17-.06.25-.24.19-.41l-.08-.16-1.18.58ZM73.26,51.37l.07.16c.09.15.29.19.44.1l.56-.27c.16-.07.24-.24.19-.41l-.08-.16-1.18.58ZM74.97,50.53l.07.16c.09.15.29.19.44.1l.56-.27c.16-.06.25-.25.18-.41h0l-.03-.17-1.18.58-.04.02h0ZM76.67,49.69l.08.15c.08.15.27.2.42.12,0,0,.01,0,.02,0l.56-.27c.16-.07.24-.25.18-.42l-.07-.15s-1.19.58-1.19.58ZM86.4,44.9l.08.15c.06.17-.03.35-.19.42l-.56.27c-.15.09-.35.05-.44-.1l-.1-.18,1.18-.58.03.02ZM84.69,45.74l.08.16c.06.17-.02.35-.19.41l-.56.28c-.15.08-.34.04-.43-.11l-.08-.16,1.18-.58ZM82.98,46.58l.08.16c.06.16-.02.35-.18.41l-.56.28c-.15.09-.35.04-.44-.11l-.08-.16,1.18-.58ZM81.27,47.42l.08.16c.06.16-.02.35-.18.41l-.56.28c-.15.09-.35.04-.44-.11l-.08-.16,1.18-.58ZM79.56,48.21l.08.16c.06.16-.02.35-.18.41l-.56.28c-.15.09-.35.04-.44-.11h0l-.08-.15s1.18-.59,1.18-.59ZM64.11,61.57c.52-.22.43-1,.09-1.67s-.89-1.23-1.38-1l-9.72,5.41c-.38.21-.54.68-.35,1.07l.06.12h0v.12c.19.39.66.56,1.06.38l10.18-4.44h.06ZM98.11,45.63c-.42.53-.94.98-1.52,1.33.14.18.28.36.41.55.7-.46,1.37-.96,2-1.51l-.93-.37s.04,0,.04,0ZM98.67,44.56c-.1.36-.26.7-.48,1l1,.31c.48-.43.9-.93,1.23-1.49l-1.79.22.04-.04ZM98.74,43.56c.06.29.06.58,0,.87l1.89-.37c.17-.36.26-.75.25-1.15l-2.1.65h-.04ZM74.79,58.77l-.08-.16c-.06-.16.02-.34.18-.4l.56-.28c.15-.09.35-.04.44.11h0l.08.15-1.18.59h0ZM76.49,57.92l-.07-.15c-.06-.17.02-.35.18-.42l.56-.27c.14-.09.34-.05.43.09,0,0,0,0,.01.02l.08.15-1.19.58ZM78.19,57.08l-.07-.15c-.06-.17.02-.35.18-.42l.56-.27c.15-.09.35-.05.44.1l.08.16-1.19.58ZM79.91,56.21l-.08-.16c-.05-.17.03-.34.19-.41l.56-.27c.15-.09.35-.05.44.1l.07.16-1.18.58ZM89.64,51.42l-.08-.16c-.09-.15-.29-.19-.44-.1l-.56.27c-.16.07-.24.25-.18.42l.07.15,1.19-.58ZM87.93,52.26l-.08-.15c-.08-.15-.27-.2-.42-.12,0,0-.01,0-.02,0l-.56.27c-.16.07-.24.25-.18.42l.08.15s1.18-.58,1.18-.58ZM86.19,53.13v-.15c-.09-.15-.29-.2-.44-.11h0l-.56.28c-.16.06-.24.25-.18.41l.08.16s1.1-.59,1.1-.59ZM84.48,53.98l-.08-.16c-.09-.15-.29-.2-.44-.11l-.56.28c-.16.06-.24.25-.18.41l.08.16s1.18-.58,1.18-.58ZM82.77,54.82l-.07-.16c-.09-.15-.29-.2-.44-.11l-.56.28c-.17.06-.25.24-.19.41l.08.16s1.18-.58,1.18-.58ZM64.53,59.74c.42.8.48,1.82-.26,2.14l-10.19,4.44c-.57.25-1.23.01-1.51-.54l-.05-.12h0l-.06-.12c-.27-.56-.05-1.23.49-1.53l9.73-5.37c.71-.39,1.47.28,1.86,1.11h-.01ZM100.6,41.97c.1.22.17.44.21.68l-2.09.81c-.03-.17-.08-.33-.15-.49-.08-.16-.18-.3-.3-.42l1.92-1.17c.17.17.31.37.42.59,0,0-.01,0,0,0ZM42.36,70.66l.62,1.27,2.49-1.22,1.09,13.22-.14.06c-.15.08-.14.23-.14.39h0c0,.16.27.19.43.12l.63-.29,2.68-1.32h.05l2.88-14.11,1.46.4h0l8.78-4.62c.27-.15.6-.17.89-.06l3.67-1.88,2.94,10,1.5,23.24.16,2.77-1,.79.4.88,1.69-.79c1.58-.54,2.63-2.02,2.62-3.69.9-8.67,1.81-17.33,2.72-26l3.41-14.32,10-4.94,1-.47c1.83-.88,3.6-1.88,5.3-3,2.31-1.62,4.42-3.52,6.28-5.65.72-.91,1-1.51.82-1.89s-.84-.53-2-.5c-2.85.17-5.67.68-8.4,1.53-1.92.66-3.79,1.46-5.6,2.37l-1,.46-10,4.94-13.4-6.09-22.23-13.66c-1.31-1.03-3.14-1.1-4.53-.18l-1.65.86.45.86,1.22-.3,2.1,1.82,17.45,15.33,6.19,8.46-3.74,1.76c-.09.3-.3.54-.58.67l-9,4.14h0l-.58,1.4-12.91-6.32h0l-2.68,1.32-.62.32c-.15.08-.28.31-.16.41h0c.13.09.24.2.39.12l.14-.07,9.74,9.01-2.48,1.22.63,1.28.02-.05h0ZM54.9,69.28l1.29,2.13,8.67-3.43c1.3-.52-.29-3.76-1.53-3.11l-8.42,4.41s0,0-.01,0ZM51.09,61.55l-.9-2.34,8-4.77c1.21-.72,2.8,2.52,1.53,3.11,0,0-8.63,4-8.63,4ZM66.42,54.72l.08.15c.08.15.27.2.42.12,0,0,.01,0,.02,0l.56-.27c.16-.07.24-.25.18-.42l-.08-.15s-1.18.58-1.18.58ZM68.13,53.88l.08.15c.09.15.29.2.44.11h0l.56-.28c.16-.06.24-.25.18-.41l-.08-.16-1.18.59ZM69.84,53.03l.08.16c.09.15.29.2.44.11l.56-.28c.16-.06.24-.25.18-.41l-.08-.16-1.18.58ZM69.66,61.29l-.08-.15c-.06-.17.03-.35.19-.42l.56-.27c.15-.09.35-.05.44.1l.07.16-1.18.58ZM71.37,60.45l-.08-.16c-.06-.17.02-.35.19-.41l.56-.28c.15-.08.34-.04.43.11l.08.16-1.18.58ZM73.08,59.61l-.08-.16c-.06-.16.02-.35.18-.41l.56-.28c.15-.09.35-.04.44.11l.08.16-1.18.58Z"/></svg>