<?xml version="1.0" encoding="UTF-8"?><svg id="Layer_1" xmlns="http://www.w3.org/2000/svg" xmlns:xlink="http://www.w3.org/1999/xlink" viewBox="0 0 416.6 133.98"><defs><style>.cls-1{fill:url(#linear-gradient);}.cls-1,.cls-2,.cls-3,.cls-4,.cls-5{stroke-width:0px;}.cls-2{fill:#adafb2;}.cls-2,.cls-3{fill-rule:evenodd;}.cls-3{fill:#fff;}.cls-4{fill:#283779;}.cls-5{fill:#231f20;}</style><linearGradient id="linear-gradient" x1="5" y1="62.32" x2="125.6" y2="62.32" gradientUnits="userSpaceOnUse"><stop offset="0" stop-color="#223f96"/><stop offset="1" stop-color="#0572b8"/></linearGradient></defs><path class="cls-4" d="m118.9,34.7h63.6c18.6,0,18.9,11.5,17.1,19-1.8,7.2-7.4,13.5-13.4,15.5l-.1.2c7.6,1.8,11.2,8.4,8.5,19.3-2.3,9.2-10.1,22.9-33.7,22.9h-61.5l19.5-76.9Zm37.9,60.3c5.4,0,9.8-2.9,11.1-8s-1.7-7.6-7.1-7.6h-27.6l-4,15.6h27.6Zm-19.8-30.7h25.5c5.5,0,8.6-3,9.5-6.6s-.7-6.5-6.2-6.5h-25.5l-3.3,13.1Z"/><path class="cls-4" d="m243.1,34.7h31.3l13.5,76.9h-27.4l-1.5-12.5h-33.6l-7.8,12.5h-27.4l52.9-76.9Zm10.7,19.4h-.2l-18,29.1h21.5l-3.3-29.1Z"/><polygon class="cls-4" points="379 34.5 353.6 78.8 349.7 34.5 312.4 34.5 293.7 111.6 319.6 111.6 330.7 65.9 335 111.6 357 111.6 382.9 66.8 372.1 111.6 398 111.6 416.6 34.5 379 34.5"/><path class="cls-2" d="m62.8,4.4C29.5,4.4,2.5,31.4,2.5,64.7c0,1.7.1,3.4.2,5.1,3.4,3.2,7.7,5.4,12.3,6.3,14.5,2.7,38-9.7,35-5.8-9.3,11.5-20.6,23.5-36.1,27.4-.5.1-.9.2-1.4.3,18.3,27.7,55.7,35.4,83.5,17s35.5-55.7,17.1-83.5c-11.1-16.9-30-27.1-50.3-27.1Z"/><path class="cls-1" d="m65.3,2C32,2,5,29,5,62.2c0,1.7.1,3.4.2,5.1,3.4,3.2,7.7,5.4,12.3,6.3,14.5,2.7,38-9.7,34.9-5.8-9.3,11.5-20.6,23.5-36.1,27.4-.5.1-.9.2-1.4.3,18.3,27.8,55.7,35.5,83.5,17.2s35.6-55.7,17.3-83.6C104.5,12.2,85.6,2,65.3,2Z"/><path class="cls-3" d="m101,41.5c-.7,0-1.4.1-2,.4-.1-.2-.1-.4-.2-.7.8-.3,1.6-.5,2.4-.7l-.2,1h0Zm1.2.2c-.3-.1-.7-.2-1-.2l.4-1c.6-.1,1.3-.1,1.9-.1l-1.3,1.3h0Zm.8.6c-.2-.2-.5-.4-.7-.5l1.4-1.3c.4.1.8.3,1.1.5l-1.8,1.3h0Zm-26.6,9.7l.1.2c.1.1.3.2.4.1l.6-.3c.2-.1.3-.2.2-.4l-.1-.2-1.2.6Zm1.7-.8l.1.2c.1.1.3.2.4.1l.6-.3c.2-.1.2-.2.2-.4l-.1-.2-1.2.6Zm1.7-.9l.1.2c.1.1.3.2.4.1l.6-.3c.2-.1.2-.2.2-.4h0v-.2l-1.3.6h0Zm1.7-.8l.1.2c.1.1.3.2.4.1h0l.6-.3c.2-.1.2-.3.2-.4l-.1-.2s-1.2.6-1.2.6Zm9.7-4.8l.1.2c.1.2,0,.4-.2.4l-.6.3c-.1.1-.3,0-.4-.1l-.1-.3,1.2-.5h0Zm-1.7.8l.1.2c.1.2,0,.3-.2.4l-.6.3c-.1.1-.3,0-.4-.1l-.1-.2s1.2-.6,1.2-.6Zm-1.7.9l.1.2c.1.2,0,.3-.2.4l-.6.3c-.2.1-.3,0-.4-.1l-.1-.2c0-.1,1.2-.6,1.2-.6Zm-1.7.8l.1.2c.1.2,0,.3-.2.4l-.6.3c-.2.1-.3,0-.4-.1l-.1-.2s1.2-.6,1.2-.6Zm-1.7.8l.1.2c.1.2,0,.3-.2.4l-.6.3c-.2.1-.3,0-.4-.1h0l-.1-.2,1.2-.6Zm-15.5,13.4c.5-.2.4-1,.1-1.7s-.9-1.2-1.4-1l-9.7,5.4c-.4.2-.5.7-.3,1.1l.1.1h0v.1c.2.4.7.6,1.1.4l10.1-4.4h0Zm34-16c-.4.5-.9,1-1.5,1.3.1.2.3.4.4.5.7-.5,1.4-1,2-1.5l-.9-.3h0Zm.6-1c-.1.4-.3.7-.5,1l1,.3c.5-.4.9-.9,1.2-1.5l-1.7.2h0Zm0-1c.1.3.1.6,0,.9l1.9-.4c.2-.4.3-.8.2-1.2l-2.1.7h0Zm-23.9,15.2l-.1-.2c-.1-.2,0-.3.2-.4l.6-.3c.2-.1.3,0,.4.1h0l.1.2-1.2.6h0Zm1.7-.9l-.1-.2c-.1-.2,0-.4.2-.4l.6-.3c.1-.1.3-.1.4.1h0l.1.2-1.2.6Zm1.7-.8l-.1-.2c-.1-.2,0-.4.2-.4l.6-.3c.1-.1.3,0,.4.1l.1.2-1.2.6Zm1.7-.9l-.1-.2c-.1-.2,0-.3.2-.4l.6-.3c.1-.1.3,0,.4.1l.1.2-1.2.6Zm9.7-4.8v-.2c-.1-.1-.3-.2-.4-.1l-.6.3c-.2.1-.2.3-.2.4l.1.2,1.1-.6Zm-1.7.8l-.1-.2c-.1-.1-.3-.2-.4-.1h0l-.6.3c-.2.1-.2.3-.2.4l.1.2c.1,0,1.2-.6,1.2-.6Zm-1.7.9v-.1c-.1-.2-.3-.2-.4-.1h0l-.6.2c-.2.1-.2.2-.2.4l.1.2,1.1-.6Zm-1.7.9l-.1-.2c-.1-.1-.3-.2-.4-.1l-.6.3c-.2,0-.2.2-.2.4l.1.2c0-.1,1.2-.6,1.2-.6Zm-1.7.8l-.1-.2c-.1-.1-.3-.2-.4-.1l-.6.3c-.2.1-.3.2-.2.4l.1.2,1.2-.6Zm-18.3,4.9c.4.8.5,1.8-.3,2.1l-10.2,4.4c-.6.2-1.2,0-1.5-.5v-.1h0l-.1-.1c-.3-.6-.1-1.2.5-1.5l9.7-5.4c.8-.4,1.6.3,1.9,1.1h0Zm36.1-17.7c.1.2.2.4.2.7l-2.1.8c0-.2-.1-.3-.2-.5s-.2-.3-.3-.4l1.9-1.2c.3.1.4.3.5.6h0Zm-58.2,28.6l.6,1.3,2.5-1.2,1.1,13.2-.1.1c-.2.1-.1.2-.1.4h0c0,.2.3.2.4.1l.6-.3,2.7-1.3h0l2.9-14.1,1.5.4h0l8.8-4.6c.3-.1.6-.2.9-.1l3.7-1.9,2.9,10,1.4,23.3.2,2.8-1,.8.4.9,1.7-.8c1.6-.5,2.6-2,2.6-3.7.9-8.7,1.8-17.3,2.7-26l3.4-14.4,10-4.9,1-.5c1.8-.9,3.6-1.9,5.3-3,2.3-1.6,4.4-3.5,6.3-5.7.7-.9,1-1.5.8-1.9s-.8-.5-2-.5c-2.9.2-5.7.7-8.4,1.5-1.9.7-3.8,1.5-5.6,2.4l-1,.5-10,4.9-13.4-6.1-22.2-13.6c-1.3-1-3.1-1.1-4.5-.2l-1.7.9.5.9,1.2-.3,2.1,1.8,17.5,15.3,6.2,8.5-3.8,1.7c-.1.3-.3.5-.6.7l-9,4.1h0l-.6,1.4-12.9-6.3h0l-2.7,1.3-.6.3c-.2.1-.3.3-.2.4h0c.1.1.2.2.4.1l.1-.1,9.7,9-2.5,1.2.8,1.3h0Zm12.5-1.3l1.3,2.1,8.7-3.4c1.3-.5-.3-3.8-1.5-3.1l-8.5,4.4h0Zm-3.8-7.8l-.9-2.3,8-4.8c1.2-.7,2.8,2.5,1.5,3.1l-8.6,4Zm15.3-6.8l.1.2c.1.1.3.2.4.1h0l.6-.3c.2-.1.2-.3.2-.4l-.1-.2s-1.2.6-1.2.6Zm1.7-.8l.1.2c.1.2.3.2.4.1h0l.6-.3c.2-.1.2-.2.2-.4l-.1-.2-1.2.6Zm1.8-.9l.1.2c.1.1.3.2.4.1l.6-.3c.2-.1.2-.2.2-.4l-.1-.2c-.1,0-1.2.6-1.2.6Zm-.2,8.3l-.1-.2c-.1-.2,0-.4.2-.4l.6-.3c.1-.1.3,0,.4.1l.1.2-1.2.6Zm1.7-.9l-.1-.2c-.1-.2,0-.3.2-.4l.6-.3c.1-.1.3,0,.4.1l.1.2c0,.1-1.2.6-1.2.6Zm1.7-.8l-.1-.2c-.1-.2,0-.3.2-.4l.6-.3c.2-.1.3,0,.4.1l.1.2-1.2.6Z"/><path class="cls-5" d="m114.99,123.61c-.5-.32-1.1-.52-1.79-.6v-.04c.5-.07.95-.27,1.34-.58.39-.31.7-.69.93-1.15s.34-.93.34-1.43v-.02c0-.72-.17-1.35-.52-1.89-.35-.54-.83-.96-1.45-1.26-.62-.3-1.34-.45-2.17-.45h-5.47v14.43h5.45c1.03,0,1.9-.16,2.63-.49.73-.32,1.29-.79,1.68-1.39s.59-1.33.59-2.18v-.02c0-.64-.13-1.21-.4-1.72-.27-.5-.65-.92-1.15-1.24Zm-3.73-5.82c.87,0,1.55.19,2.02.57.47.38.71.92.71,1.64v.02c0,.78-.28,1.38-.85,1.79-.56.41-1.38.62-2.45.62h-2.7v-4.63h3.26Zm3.43,8.72c0,.83-.28,1.46-.85,1.89-.56.43-1.39.64-2.47.64h-3.38v-5.07h3.21c.77,0,1.41.09,1.93.28.52.19.91.47,1.17.84.26.37.39.84.39,1.4v.02Z"/><path class="cls-5" d="m128.22,116.87c-.99-.61-2.17-.91-3.53-.91s-2.54.3-3.54.91c-1,.61-1.77,1.47-2.31,2.58-.54,1.11-.82,2.43-.82,3.96v.02c0,1.53.27,2.85.81,3.96.54,1.11,1.31,1.97,2.31,2.58,1,.61,2.18.91,3.55.91s2.55-.3,3.54-.91c.99-.61,1.76-1.47,2.3-2.58.54-1.11.81-2.43.81-3.96v-.02c0-1.53-.27-2.85-.81-3.96s-1.31-1.97-2.3-2.58Zm1.27,6.55c0,1.17-.19,2.19-.58,3.06-.39.87-.94,1.54-1.66,2.02s-1.57.71-2.57.71-1.84-.24-2.56-.71c-.72-.47-1.28-1.14-1.67-2.01-.39-.87-.59-1.89-.59-3.07v-.02c0-1.19.2-2.21.59-3.08.39-.86.95-1.53,1.68-2,.72-.47,1.58-.71,2.56-.71s1.83.24,2.55.71c.72.47,1.28,1.14,1.67,2.01.39.87.59,1.89.59,3.07v.02Z"/><path class="cls-5" d="m135.44,120.34c.39-.86.94-1.53,1.65-2.01.71-.48,1.55-.72,2.51-.72.68,0,1.29.11,1.82.33.53.22.99.54,1.36.95s.65.91.84,1.5l.07.22h1.82l-.02-.1c-.18-.91-.55-1.71-1.1-2.39-.55-.68-1.24-1.21-2.06-1.59s-1.73-.57-2.73-.57c-1.34,0-2.5.3-3.49.92-.99.61-1.75,1.47-2.29,2.59-.54,1.11-.81,2.43-.81,3.94h0c0,1.52.27,2.84.81,3.96.54,1.12,1.31,1.98,2.3,2.6.99.61,2.15.92,3.49.92,1.01,0,1.92-.19,2.74-.56.82-.37,1.5-.9,2.05-1.58s.91-1.49,1.09-2.41l.02-.1h-1.82l-.03.09c-.21.63-.5,1.17-.88,1.6-.38.43-.84.75-1.37.97-.53.22-1.13.33-1.81.33-.95,0-1.79-.24-2.5-.72-.71-.48-1.27-1.16-1.66-2.03-.39-.87-.58-1.89-.58-3.06h0c0-1.18.19-2.2.58-3.07Z"/><path class="cls-5" d="m153.18,116.2h-1.33l-5.37,14.43h1.89l1.46-4.13h5.81l1.46,4.13h1.89l-5.36-14.43h-.45Zm-2.8,8.77l2.34-6.61h.04l2.34,6.61h-4.72Z"/><path class="cls-5" d="m170.39,116.2h-1.33l-5.37,14.43h1.89l1.46-4.13h5.81l1.46,4.13h1.89l-5.36-14.43h-.45Zm-2.8,8.77l2.34-6.61h.04l2.34,6.61h-4.72Z"/><rect class="cls-5" x="177.85" y="116.2" width="1.8" height="14.43"/><path class="cls-5" d="m191.69,123.12c.52-.73.77-1.6.77-2.6v-.02c0-.87-.19-1.62-.57-2.27-.38-.64-.92-1.14-1.61-1.5-.69-.36-1.5-.54-2.43-.54h-5.41v14.43h1.8v-5.71h3.45l3.09,5.71h2.11l-3.34-5.99c.9-.29,1.61-.79,2.13-1.53Zm-7.44.21v-5.53h3.37c.93,0,1.66.24,2.19.72.53.48.8,1.16.8,2.02v.02c0,.89-.25,1.57-.76,2.05-.5.48-1.22.72-2.15.72h-3.45Z"/><path class="cls-5" d="m196.6,120.34c.39-.86.94-1.53,1.65-2.01.71-.48,1.55-.72,2.51-.72.68,0,1.29.11,1.82.33.53.22.99.54,1.36.95s.65.91.84,1.5l.07.22h1.82l-.02-.1c-.18-.91-.55-1.71-1.1-2.39-.55-.68-1.24-1.21-2.06-1.59s-1.73-.57-2.73-.57c-1.34,0-2.5.3-3.49.92-.99.61-1.75,1.47-2.29,2.59-.54,1.11-.81,2.43-.81,3.94h0c0,1.52.27,2.84.81,3.96.54,1.12,1.31,1.98,2.3,2.6.99.61,2.15.92,3.49.92,1.01,0,1.92-.19,2.74-.56.82-.37,1.5-.9,2.05-1.58s.91-1.49,1.09-2.41l.02-.1h-1.82l-.03.09c-.21.63-.5,1.17-.88,1.6-.38.43-.84.75-1.37.97-.53.22-1.13.33-1.81.33-.95,0-1.79-.24-2.5-.72-.71-.48-1.27-1.16-1.66-2.03-.39-.87-.58-1.89-.58-3.06h0c0-1.18.19-2.2.58-3.07Z"/><path class="cls-5" d="m218.02,123.12c.52-.73.78-1.6.78-2.6v-.02c0-.87-.19-1.62-.57-2.27s-.92-1.14-1.61-1.5-1.5-.54-2.43-.54h-5.41v14.43h1.8v-5.71h3.45l3.09,5.71h2.11l-3.34-5.99c.9-.29,1.61-.79,2.13-1.53Zm-7.44.21v-5.53h3.37c.93,0,1.66.24,2.19.72.53.48.79,1.16.79,2.02v.02c0,.89-.25,1.57-.75,2.05-.5.48-1.22.72-2.15.72h-3.45Z"/><path class="cls-5" d="m226.61,116.2h-1.33l-5.37,14.43h1.89l1.46-4.13h5.81l1.46,4.13h1.89l-5.36-14.43h-.45Zm-2.8,8.77l2.34-6.61h.04l2.34,6.61h-4.72Z"/><polygon class="cls-5" points="234.07 130.63 235.87 130.63 235.87 124.38 242.26 124.38 242.26 122.78 235.87 122.78 235.87 117.82 242.83 117.82 242.83 116.2 234.07 116.2 234.07 130.63"/><polygon class="cls-5" points="243.99 117.82 248.54 117.82 248.54 130.63 250.34 130.63 250.34 117.82 254.89 117.82 254.89 116.2 243.99 116.2 243.99 117.82"/><polygon class="cls-5" points="268.13 128.36 268.07 128.36 263.07 116.2 260.99 116.2 260.99 130.63 262.67 130.63 262.67 119.48 262.73 119.48 267.34 130.63 268.86 130.63 273.47 119.48 273.54 119.48 273.54 130.63 275.22 130.63 275.22 116.2 273.14 116.2 268.13 128.36"/><path class="cls-5" d="m283.57,116.2h-1.33l-5.37,14.43h1.89l1.46-4.13h5.81l1.46,4.13h1.89l-5.36-14.43h-.45Zm-2.8,8.77l2.34-6.61h.04l2.34,6.61h-4.72Z"/><rect class="cls-5" x="291.03" y="116.2" width="1.8" height="14.43"/><polygon class="cls-5" points="305.38 127.59 305.32 127.59 297.38 116.2 295.63 116.2 295.63 130.63 297.41 130.63 297.41 119.24 297.47 119.24 305.41 130.63 307.16 130.63 307.16 116.2 305.38 116.2 305.38 127.59"/><polygon class="cls-5" points="309.06 117.82 313.61 117.82 313.61 130.63 315.41 130.63 315.41 117.82 319.96 117.82 319.96 116.2 309.06 116.2 309.06 117.82"/><polygon class="cls-5" points="321.86 130.63 330.81 130.63 330.81 129.01 323.66 129.01 323.66 124.05 330.44 124.05 330.44 122.45 323.66 122.45 323.66 117.82 330.81 117.82 330.81 116.2 321.86 116.2 321.86 130.63"/><polygon class="cls-5" points="342.92 127.59 342.87 127.59 334.93 116.2 333.18 116.2 333.18 130.63 334.96 130.63 334.96 119.24 335.01 119.24 342.95 130.63 344.7 130.63 344.7 116.2 342.92 116.2 342.92 127.59"/><path class="cls-5" d="m353.05,116.2h-1.33l-5.37,14.43h1.89l1.46-4.13h5.81l1.46,4.13h1.89l-5.36-14.43h-.45Zm-2.8,8.77l2.34-6.61h.04l2.34,6.61h-4.72Z"/><polygon class="cls-5" points="370.26 127.59 370.2 127.59 362.27 116.2 360.51 116.2 360.51 130.63 362.29 130.63 362.29 119.24 362.35 119.24 370.29 130.63 372.04 130.63 372.04 116.2 370.26 116.2 370.26 127.59"/><path class="cls-5" d="m376.72,120.34c.39-.86.94-1.53,1.65-2.01s1.54-.72,2.51-.72c.68,0,1.29.11,1.82.33.53.22.99.54,1.36.95s.65.91.83,1.5l.07.22h1.82l-.02-.1c-.18-.91-.54-1.71-1.1-2.39-.55-.68-1.24-1.21-2.06-1.59s-1.73-.57-2.73-.57c-1.34,0-2.5.3-3.49.92-.99.61-1.75,1.47-2.29,2.59-.54,1.11-.81,2.43-.81,3.94h0c0,1.52.27,2.84.81,3.96.54,1.12,1.31,1.98,2.3,2.6.99.61,2.15.92,3.49.92,1.01,0,1.92-.19,2.74-.56.82-.37,1.5-.9,2.05-1.58s.91-1.49,1.09-2.41l.02-.1h-1.82l-.03.09c-.21.63-.5,1.17-.88,1.6-.38.43-.83.75-1.37.97-.53.22-1.13.33-1.81.33-.95,0-1.79-.24-2.5-.72s-1.27-1.16-1.66-2.03c-.39-.87-.59-1.89-.59-3.06h0c0-1.18.2-2.2.59-3.07Z"/><polygon class="cls-5" points="397.84 117.82 397.84 116.2 388.89 116.2 388.89 130.63 397.84 130.63 397.84 129.01 390.7 129.01 390.7 124.05 397.47 124.05 397.47 122.45 390.7 122.45 390.7 117.82 397.84 117.82"/></svg>