<?xml version="1.0" standalone="no"?>
<!DOCTYPE svg PUBLIC "-//W3C//DTD SVG 20010904//EN"
 "http://www.w3.org/TR/2001/REC-SVG-20010904/DTD/svg10.dtd">
<svg version="1.0" xmlns="http://www.w3.org/2000/svg"
 width="700.000000pt" height="700.000000pt" viewBox="0 0 700.000000 700.000000"
 preserveAspectRatio="xMidYMid meet">
<metadata>
Created by potrace 1.14, written by Peter Selinger 2001-2017
</metadata>
<g transform="translate(0.000000,700.000000) scale(0.100000,-0.100000)"
fill="#000000" stroke="none">
<path d="M3315 6870 c-1528 -79 -2819 -1194 -3124 -2698 -49 -240 -64 -398
-64 -677 -1 -181 3 -256 12 -273 19 -36 163 -144 267 -202 426 -236 883 -232
1704 15 168 51 358 132 353 150 -4 18 -530 495 -545 495 -42 0 -11 29 80 74
l97 48 359 -176 c198 -97 360 -176 361 -176 2 0 10 17 18 38 15 38 22 41 271
157 141 65 263 127 273 137 9 10 61 39 115 65 54 25 98 48 98 50 0 2 -78 110
-174 241 l-174 237 -542 475 c-298 261 -548 474 -556 474 -7 -1 -24 -4 -37 -8
-19 -4 -26 0 -35 19 -10 23 -8 26 56 62 79 44 176 57 229 30 16 -9 313 -190
659 -403 l629 -387 370 -169 c203 -92 377 -168 386 -168 9 0 171 77 360 170
366 181 540 255 682 289 206 50 430 67 462 35 31 -32 -17 -106 -154 -236 -192
-183 -297 -248 -794 -492 -196 -96 -357 -178 -357 -182 0 -4 -42 -185 -94
-403 l-94 -396 -77 -740 c-42 -407 -81 -756 -86 -775 -13 -55 -64 -107 -140
-145 -80 -41 -95 -43 -105 -13 -5 17 0 27 21 44 l27 21 -46 724 -47 724 -81
280 c-45 154 -82 281 -84 283 -1 2 -47 -20 -103 -47 -55 -28 -110 -51 -121
-51 -11 0 -132 -59 -268 -131 -250 -132 -254 -133 -322 -117 -11 2 -31 -77
-95 -392 l-81 -394 -90 -42 c-87 -42 -124 -52 -124 -36 0 4 4 12 8 17 5 6 -2
149 -16 319 l-26 309 -70 -79 c-131 -148 -421 -436 -541 -539 -288 -246 -568
-421 -869 -542 -110 -44 -335 -113 -368 -113 -28 0 -22 -16 39 -102 159 -227
417 -502 628 -671 1333 -1070 3235 -989 4465 190 565 541 919 1260 1016 2058
22 191 23 561 0 750 -80 660 -320 1234 -732 1750 -113 141 -357 385 -499 499
-477 382 -1043 629 -1641 715 -112 17 -502 46 -524 39 -3 0 -68 -4 -145 -8z
m4 -2936 c17 -14 36 -43 42 -64 23 -75 24 -74 -250 -202 l-250 -116 -25 66
c-14 36 -25 67 -23 68 10 9 462 274 468 274 4 0 21 -12 38 -26z m297 -591 c32
-34 50 -96 37 -124 -7 -17 -68 -45 -258 -120 -136 -55 -249 -98 -250 -96 -32
50 -65 109 -65 115 1 12 463 251 488 251 13 1 34 -11 48 -26z"/>
<path d="M5447 4723 c-18 -3 -31 -13 -38 -29 -12 -33 -13 -31 21 -36 23 -4 36
2 60 27 27 27 29 33 15 39 -9 3 -20 5 -23 5 -4 -1 -20 -4 -35 -6z"/>
<path d="M5333 4699 c-43 -13 -63 -25 -63 -36 0 -12 7 -14 31 -9 17 3 42 6 55
6 17 0 28 8 35 26 5 15 8 28 7 29 -2 2 -31 -6 -65 -16z"/>
<path d="M5503 4687 c-21 -20 -33 -39 -29 -45 14 -24 33 -16 116 46 6 4 -30
32 -42 32 -5 0 -25 -15 -45 -33z"/>
<path d="M5558 4650 c-52 -32 -55 -37 -35 -63 11 -16 15 -16 59 1 26 10 50 21
54 25 7 7 -15 67 -25 67 -3 0 -27 -14 -53 -30z"/>
<path d="M5573 4573 c-34 -11 -43 -20 -43 -38 0 -22 2 -22 48 -13 46 10 72 29
72 55 0 17 -24 15 -77 -4z"/>
<path d="M5539 4503 c-10 -2 -19 -12 -21 -21 -3 -9 -7 -21 -9 -26 -2 -5 8 -13
23 -17 24 -6 32 -2 59 32 l31 39 -34 -1 c-18 -1 -40 -3 -49 -6z"/>
<path d="M4794 4466 c-10 -8 -16 -18 -12 -22 10 -9 58 12 58 26 0 14 -23 12
-46 -4z"/>
<path d="M5452 4401 c-35 -30 -41 -40 -30 -49 10 -8 26 -1 67 30 47 36 52 43
35 49 -27 11 -25 12 -72 -30z"/>
<path d="M4703 4418 c-13 -6 -23 -15 -23 -20 0 -14 27 -9 51 12 27 22 10 26
-28 8z"/>
<path d="M4611 4374 c-24 -10 -31 -18 -24 -25 13 -13 63 9 63 28 0 16 3 16
-39 -3z"/>
<path d="M4513 4328 c-26 -12 -30 -28 -9 -28 25 0 46 12 46 26 0 16 -7 17 -37
2z"/>
<path d="M4421 4281 c-19 -10 -29 -21 -23 -25 15 -9 62 14 62 31 0 16 3 16
-39 -6z"/>
<path d="M4328 4234 c-29 -15 -37 -34 -15 -34 20 0 50 25 46 38 -3 7 -13 6
-31 -4z"/>
<path d="M4227 4184 c-37 -20 -24 -38 14 -19 16 9 29 20 29 25 0 13 -10 12
-43 -6z"/>
<path d="M4133 4138 c-24 -11 -31 -28 -12 -28 17 0 49 20 49 30 0 12 -9 12
-37 -2z"/>
<path d="M4973 4128 c-20 -10 -33 -38 -18 -38 17 0 65 32 60 40 -7 12 -14 12
-42 -2z"/>
<path d="M4033 4088 c-23 -11 -31 -28 -13 -28 16 0 60 23 60 32 0 11 -20 9
-47 -4z"/>
<path d="M4869 4070 c-13 -10 -19 -19 -12 -20 18 0 63 22 63 32 0 14 -27 9
-51 -12z"/>
<path d="M3936 4044 c-18 -10 -25 -19 -19 -25 13 -13 63 9 63 28 0 17 -8 16
-44 -3z"/>
<path d="M4776 4025 c-11 -8 -17 -18 -13 -22 9 -8 57 14 57 27 0 14 -22 12
-44 -5z"/>
<path d="M3843 3998 c-28 -14 -30 -28 -4 -28 17 0 51 24 51 36 0 7 -24 3 -47
-8z"/>
<path d="M4674 3976 c-29 -21 -10 -30 25 -11 17 8 31 18 31 20 0 11 -37 4 -56
-9z"/>
<path d="M3740 3945 c-21 -11 -22 -15 -8 -20 18 -7 58 10 58 25 0 14 -21 12
-50 -5z"/>
<path d="M4587 3934 c-38 -20 -24 -38 14 -19 16 9 27 20 24 25 -7 12 -4 13
-38 -6z"/>
<path d="M4493 3890 c-23 -9 -32 -30 -13 -30 19 0 59 23 54 31 -6 11 -12 10
-41 -1z"/>
<path d="M4394 3836 c-10 -8 -16 -17 -13 -21 8 -7 59 15 59 27 0 13 -24 10
-46 -6z"/>
<path d="M4290 3785 c-7 -9 -10 -18 -7 -21 5 -6 67 23 67 31 0 12 -49 3 -60
-10z"/>
<path d="M4220 3753 c-25 -9 -40 -25 -34 -34 3 -5 19 -2 35 6 16 9 27 20 24
25 -4 6 -7 10 -8 9 -1 0 -9 -3 -17 -6z"/>
<path d="M3231 3562 c-192 -107 -288 -165 -294 -180 -14 -31 14 -89 47 -98 18
-4 101 27 318 121 161 70 301 134 311 143 44 39 -14 172 -75 172 -13 0 -151
-71 -307 -158z m349 108 c12 -17 24 -49 27 -70 5 -33 2 -41 -13 -47 -11 -3
-147 -62 -304 -130 -193 -84 -291 -122 -306 -119 -29 8 -43 61 -21 83 26 27
551 313 574 313 13 0 30 -12 43 -30z"/>
<path d="M4108 3699 c-10 -5 -18 -16 -18 -24 0 -12 6 -12 35 2 19 9 32 20 29
25 -7 11 -25 10 -46 -3z"/>
<path d="M4004 3646 c-10 -8 -16 -18 -12 -22 9 -8 68 15 68 27 0 14 -34 11
-56 -5z"/>
<path d="M3923 3607 c-13 -5 -23 -16 -23 -23 0 -10 7 -10 30 -1 17 6 30 15 30
19 0 13 -15 16 -37 5z"/>
</g>
</svg>
